<?xml version="1.0" encoding="UTF-8"?>
<svg version="1.1" xmlns="http://www.w3.org/2000/svg" width="200" height="200">
<path d="M0 0 C66 0 132 0 200 0 C200 66 200 132 200 200 C134 200 68 200 0 200 C0 134 0 68 0 0 Z " fill="#FEFEFE" transform="translate(0,0)"/>
<path d="M0 0 C28.71 0 57.42 0 87 0 C84.78545387 5.53636532 81.85532244 10.76524219 79 16 C62.5 16.33 46 16.66 29 17 C30.98 20.63 32.96 24.26 35 28 C35 28.66 35 29.32 35 30 C46.55 30 58.1 30 70 30 C69.34 31.65 68.68 33.3 68 35 C67.6383374 35.94721924 67.2766748 36.89443848 66.90405273 37.87036133 C65.25574684 41.26443667 63.83377093 43.48185746 61 46 C54.97432187 47.38971834 49.19829272 47.04311857 43.0625 46.6875 C41.40836552 46.6322704 39.75405429 46.58208934 38.09960938 46.53710938 C34.062018 46.41637805 30.03295786 46.226963 26 46 C25.6282666 45.33170166 25.2565332 44.66340332 24.87353516 43.97485352 C15.12125814 26.45256472 15.12125814 26.45256472 5.02197266 9.12915039 C3.23067647 6.12291163 1.56697047 3.13394095 0 0 Z " fill="#060606" transform="translate(39,47)"/>
<path d="M0 0 C1.61953954 0.05925145 3.23794762 0.16585367 4.8515625 0.31640625 C5.68300781 0.35701172 6.51445312 0.39761719 7.37109375 0.43945312 C9.40879095 0.54485126 11.44345645 0.70628404 13.4765625 0.87890625 C7.19403792 13.05373648 0.29349162 24.84289328 -6.63818359 36.65673828 C-9.74608764 41.96858983 -12.82404339 47.29760805 -15.8984375 52.62890625 C-16.51211182 53.69294678 -17.12578613 54.7569873 -17.75805664 55.85327148 C-23.19133363 65.28452716 -28.59264599 74.73398338 -33.98193359 84.19042969 C-35.2170065 86.35604573 -36.45470395 88.52016757 -37.6953125 90.68261719 C-38.965872 92.90406016 -40.22551692 95.13176698 -41.4765625 97.36425781 C-42.41242188 99.01506348 -42.41242188 99.01506348 -43.3671875 100.69921875 C-43.92599609 101.69453613 -44.48480469 102.68985352 -45.06054688 103.71533203 C-45.54330078 104.42931152 -46.02605469 105.14329102 -46.5234375 105.87890625 C-47.1834375 105.87890625 -47.8434375 105.87890625 -48.5234375 105.87890625 C-49.92163888 103.66158689 -51.29107108 101.43352471 -52.6484375 99.19140625 C-53.04675781 98.56556641 -53.44507812 97.93972656 -53.85546875 97.29492188 C-54.96875 95.4296875 -54.96875 95.4296875 -56.5234375 91.87890625 C-55.43251614 88.30040854 -53.64727536 85.12924582 -51.828125 81.87109375 C-51.28542969 80.89849609 -50.74273437 79.92589844 -50.18359375 78.92382812 C-49.59449219 77.87775391 -49.00539063 76.83167969 -48.3984375 75.75390625 C-47.78097656 74.65369141 -47.16351563 73.55347656 -46.52734375 72.41992188 C-41.32602017 63.20034129 -35.94051475 54.09613056 -30.50976562 45.00976562 C-25.23825973 36.16244718 -20.16887854 27.21430401 -15.21484375 18.18554688 C-14.16946499 16.29191065 -13.1106794 14.40559412 -12.03662109 12.52807617 C-11.03160825 10.76857401 -10.05997383 8.98956359 -9.12353516 7.19262695 C-6.67279186 2.87354133 -5.16899088 0.39474234 0 0 Z " fill="#050505" transform="translate(147.5234375,46.12109375)"/>
<path d="M0 0 C5.94 0 11.88 0 18 0 C16.50260417 2.734375 15.00520833 5.46875 13.5078125 8.203125 C12.29580534 10.45130408 11.12452433 12.7072805 10 15 C5.93875609 13.64625203 5.39684351 11.73741172 3.3125 8.0625 C2.68988281 6.98097656 2.06726563 5.89945312 1.42578125 4.78515625 C0 2 0 2 0 0 Z " fill="#0F0F0F" transform="translate(74,107)"/>
</svg>
