<?xml version="1.0" encoding="UTF-8"?>
<svg version="1.1" xmlns="http://www.w3.org/2000/svg" width="224" height="71">
<path d="M0 0 C4.46165577 -0.05016131 8.92315374 -0.08607179 13.38500977 -0.10986328 C14.89675767 -0.11980161 16.40848699 -0.13335698 17.92016602 -0.15087891 C43.44122584 -0.43886962 43.44122584 -0.43886962 50.5625 5.0625 C56.19444846 10.86114461 58.20276268 16.52780377 58.5 24.5625 C58.24282862 31.46594423 56.98324589 36.13061846 51.953125 40.96875 C50.53327649 42.19727141 49.08648347 43.39564254 47.609375 44.5546875 C47.07828125 45.03164063 46.5471875 45.50859375 46 46 C46 52.22739895 52.96007798 59.48181896 56.703125 64.2109375 C58.04515359 66.06229019 59.03398911 67.93127857 60 70 C57.40976857 72.59023143 50.94131532 71.90876621 47.36865234 72.01782227 C41.10563499 71.82398099 41.10563499 71.82398099 38.30175781 69.734375 C35.04943453 65.96250394 33.05367703 61.50040229 31 57 C29.47791242 54.17197928 28.21985833 52.38634771 26 50 C22.97752482 49.16869104 20.12623529 48.95232321 17 49 C17.01160156 49.76183594 17.02320312 50.52367187 17.03515625 51.30859375 C17.09043081 57.63358272 16.92386877 63.73822279 16 70 C15 71 15 71 11.40234375 71.09765625 C9.91403133 71.0909822 8.42573568 71.07902183 6.9375 71.0625 C6.17888672 71.05798828 5.42027344 71.05347656 4.63867188 71.04882812 C2.75908129 71.0370068 0.87953101 71.01907078 -1 71 C-1.02332902 63.51461207 -1.04101866 56.02922798 -1.05181217 48.5438118 C-1.05699653 45.06679231 -1.06401176 41.58979798 -1.07543945 38.11279297 C-1.0885392 34.10123474 -1.09326492 30.08970229 -1.09765625 26.078125 C-1.10281754 24.84950745 -1.10797882 23.62088989 -1.11329651 22.3550415 C-1.11377664 14.85204794 -0.75463584 7.46539183 0 0 Z M17 16 C17 21.61 17 27.22 17 33 C19.92460429 34.46230215 22.55652824 34.20908727 25.8125 34.25 C27.03582031 34.27578125 28.25914063 34.3015625 29.51953125 34.328125 C34.20875609 33.8860432 36.71953183 32.28046817 40 29 C40.4392881 23.64499725 40.4392881 23.64499725 38.9375 18.625 C33.77151813 14.29224101 23.05179592 12.97410204 17 16 Z " fill="#FCFEFC" transform="translate(81,0)"/>
<path d="M0 0 C0.84771973 0.00161133 1.69543945 0.00322266 2.56884766 0.00488281 C11.3918839 0.17758473 18.23971114 2.24039706 24.8125 8.375 C24.18184243 11.59352831 23.03229305 13.88301069 21.25 16.625 C20.79496094 17.33140625 20.33992188 18.0378125 19.87109375 18.765625 C19.34708984 19.56226563 19.34708984 19.56226563 18.8125 20.375 C13.76719777 19.87046978 10.30671531 18.62210766 5.8125 16.375 C0.85332161 15.29299744 -3.2074974 15.46030564 -8.1875 16.375 C-7.8575 18.685 -7.5275 20.995 -7.1875 23.375 C-0.6554907 26.14704909 5.91337989 28.39040026 12.734375 30.34765625 C18.52510684 32.28034974 22.3553876 34.253352 25.8125 39.375 C27.85391921 45.49925763 28.11066264 53.88553883 25.8359375 60 C24.62270326 61.96499288 23.34983985 63.65548982 21.8125 65.375 C20.884375 66.550625 20.884375 66.550625 19.9375 67.75 C14.63095664 71.80794492 8.20179645 71.66434281 1.8125 71.5625 C0.66007812 71.5615332 0.66007812 71.5615332 -0.515625 71.56054688 C-9.93291585 71.48847577 -16.48625832 69.97346786 -24.1875 64.375 C-26.8125 61.5 -26.8125 61.5 -28.1875 59.375 C-27.5275 59.375 -26.8675 59.375 -26.1875 59.375 C-25.94 58.83875 -25.6925 58.3025 -25.4375 57.75 C-23.89053025 54.81075748 -22.05735631 52.11745592 -20.1875 49.375 C-16.18382603 49.86029381 -13.37975615 51.34866572 -9.93359375 53.38671875 C-4.70778088 56.34450546 0.88986648 57.34150186 6.8125 56.375 C9.38240998 54.56235352 9.38240998 54.56235352 10.8125 52.375 C10.24596702 49.88876693 10.24596702 49.88876693 8.8125 47.375 C6.11852333 46.03632193 6.11852333 46.03632193 2.875 45.3125 C1.70839844 44.98894531 0.54179687 44.66539063 -0.66015625 44.33203125 C-2.40619141 43.85830078 -2.40619141 43.85830078 -4.1875 43.375 C-12.81771013 40.7627908 -19.43605805 38.07907818 -24.125 30.0625 C-25.98235687 23.61637911 -25.99139273 17.54498268 -23.3671875 11.296875 C-17.87581497 2.35066545 -9.86398177 -0.01927688 0 0 Z " fill="#FCFEFC" transform="translate(197.1875,-0.375)"/>
<path d="M0 0 C5.61 0 11.22 0 17 0 C17 23.43 17 46.86 17 71 C11.39 71 5.78 71 0 71 C-0.72510159 67.37449203 -1.12594894 64.68620054 -1.12939453 61.09643555 C-1.13254669 60.14741867 -1.13569885 59.19840179 -1.13894653 58.22062683 C-1.13591019 56.69409233 -1.13591019 56.69409233 -1.1328125 55.13671875 C-1.13376923 54.07193802 -1.13472595 53.00715729 -1.13571167 51.91011047 C-1.13639182 49.65320782 -1.13454905 47.39630319 -1.13037109 45.1394043 C-1.12507869 41.73807182 -1.13029135 38.33687494 -1.13671875 34.93554688 C-1.13993623 23.24031864 -0.89762849 11.6620463 0 0 Z " fill="#FCFEFC" transform="translate(53,0)"/>
<path d="M0 0 C5.28 0 10.56 0 16 0 C16.82316681 4.11583404 17.12650481 7.37571831 17.12939453 11.51855469 C17.13254669 12.81629822 17.13569885 14.11404175 17.13894653 15.45111084 C17.13715729 16.85803257 17.13510647 18.264954 17.1328125 19.671875 C17.13348639 21.11964942 17.13445713 22.56742372 17.13571167 24.01519775 C17.13718276 27.04123009 17.13505177 30.06723283 17.13037109 33.09326172 C17.1246537 36.97956044 17.12796917 40.8657904 17.13394356 44.75208664 C17.13754769 47.73739139 17.13641163 50.72267969 17.13381577 53.70798492 C17.13314714 55.14177712 17.13397268 56.5755708 17.13629532 58.00936127 C17.13882157 60.00591505 17.13429164 62.00247406 17.12939453 63.99902344 C17.12859894 65.13643982 17.12780334 66.2738562 17.12698364 67.44573975 C17 70 17 70 16 71 C13.30345146 71.07319621 10.63308542 71.09242537 7.9375 71.0625 C7.17888672 71.05798828 6.42027344 71.05347656 5.63867188 71.04882812 C3.75908129 71.0370068 1.87953101 71.01907078 0 71 C-0.96664078 60.41979739 -1.15560173 49.92194062 -1.13037109 39.30566406 C-1.12502206 36.63600959 -1.13034376 33.96652433 -1.13671875 31.296875 C-1.14034893 20.81653789 -0.76665569 10.4532895 0 0 Z " fill="#FDFEFD" transform="translate(147,0)"/>
<path d="M0 0 C1.28583984 -0.02126953 1.28583984 -0.02126953 2.59765625 -0.04296875 C4.9375 0.1875 4.9375 0.1875 7.9375 2.1875 C8.29826355 4.13638306 8.29826355 4.13638306 8.27807617 6.54541016 C8.27784958 7.44619293 8.27762299 8.34697571 8.27738953 9.27505493 C8.26190567 10.24905243 8.24642181 11.22304993 8.23046875 12.2265625 C8.22622391 13.22255463 8.22197906 14.21854675 8.21760559 15.24472046 C8.2007768 18.43425225 8.16311676 21.62315833 8.125 24.8125 C8.1099586 26.97134506 8.09626925 29.1302 8.08398438 31.2890625 C8.05085967 36.58875612 8.00061896 41.88808337 7.9375 47.1875 C5.12493719 47.21434312 2.31262759 47.23426188 -0.5 47.25 C-1.30244141 47.25837891 -2.10488281 47.26675781 -2.93164062 47.27539062 C-4.97545221 47.2840143 -7.01933902 47.2397815 -9.0625 47.1875 C-10.94723596 45.30276404 -10.19305545 42.05348707 -10.1953125 39.546875 C-10.19626923 38.86884827 -10.19722595 38.19082153 -10.19821167 37.49224854 C-10.19889442 36.04626371 -10.19703357 34.60027587 -10.19287109 33.15429688 C-10.18762286 30.98820646 -10.19276025 28.82233303 -10.19921875 26.65625 C-10.20289798 18.12189987 -9.87088883 9.6912349 -9.0625 1.1875 C-5.96500974 0.36590085 -3.21332169 0.0242332 0 0 Z " fill="#61B3DE" transform="translate(35.0625,23.8125)"/>
<path d="M0 0 C3.6815625 -0.0309375 3.6815625 -0.0309375 7.4375 -0.0625 C8.21150146 -0.071604 8.98550293 -0.08070801 9.78295898 -0.09008789 C11.52221717 -0.09724913 13.26145304 -0.05024702 15 0 C16.68516954 1.68516954 16.13008019 3.78767788 16.1328125 6.09375 C16.13474609 7.63869141 16.13474609 7.63869141 16.13671875 9.21484375 C16.13285156 10.29894531 16.12898438 11.38304687 16.125 12.5 C16.13080078 14.12615234 16.13080078 14.12615234 16.13671875 15.78515625 C16.13542969 16.81511719 16.13414063 17.84507813 16.1328125 18.90625 C16.13168457 19.85822266 16.13055664 20.81019531 16.12939453 21.79101562 C16 24 16 24 15 25 C12.4672235 25.07320163 9.96896082 25.09227569 7.4375 25.0625 C4.983125 25.041875 2.52875 25.02125 0 25 C0 16.75 0 8.5 0 0 Z " fill="#C5112B" transform="translate(0,46)"/>
<path d="M0 0 C2.47923801 -0.02685095 4.9581884 -0.04676547 7.4375 -0.0625 C8.14455078 -0.07087891 8.85160156 -0.07925781 9.58007812 -0.08789062 C11.38693559 -0.09653588 13.19387603 -0.05220011 15 0 C16 1 16 1 16.11352539 3.22485352 C16.10828857 4.18319092 16.10305176 5.14152832 16.09765625 6.12890625 C16.09443359 7.16337891 16.09121094 8.19785156 16.08789062 9.26367188 C16.07951172 10.35228516 16.07113281 11.44089844 16.0625 12.5625 C16.05798828 13.65498047 16.05347656 14.74746094 16.04882812 15.87304688 C16.03699826 18.58208495 16.02051543 21.29101599 16 24 C15.67 24 15.34 24 15 24 C14.67 16.74 14.34 9.48 14 2 C7.07 1.505 7.07 1.505 0 1 C0 0.67 0 0.34 0 0 Z " fill="#99242A" transform="translate(0,46)"/>
</svg>
