<?xml version="1.0" encoding="UTF-8"?>
<svg version="1.1" xmlns="http://www.w3.org/2000/svg" width="1332" height="416">
<path d="M0 0 C439.56 0 879.12 0 1332 0 C1332 137.28 1332 274.56 1332 416 C892.44 416 452.88 416 0 416 C0 278.72 0 141.44 0 0 Z " fill="#FEFEFE" transform="translate(0,0)"/>
<path d="M0 0 C0.78429799 0.00086648 1.56859599 0.00173296 2.37666059 0.0026257 C3.61753458 -0.00183098 3.61753458 -0.00183098 4.88347673 -0.0063777 C7.67819143 -0.01510515 10.47286349 -0.01657644 13.26759076 -0.01806521 C15.26319717 -0.02269116 17.25880269 -0.02771551 19.25440717 -0.03311038 C24.6977328 -0.04627267 30.14104608 -0.05268873 35.58438516 -0.05712104 C38.99086605 -0.06005038 42.39734356 -0.06415529 45.80382276 -0.06862521 C56.47670874 -0.08232067 67.14958699 -0.09197283 77.82248116 -0.0958271 C90.11099989 -0.10028942 102.39940637 -0.1177432 114.68789101 -0.1468277 C124.19899102 -0.16854912 133.71005973 -0.17853721 143.22118425 -0.17986822 C148.89317835 -0.18091036 154.56506724 -0.1866889 160.23703504 -0.20468783 C165.59191038 -0.2213461 170.94660354 -0.22323926 176.30149579 -0.21454883 C178.25032537 -0.21378739 180.19916545 -0.21800059 182.14796948 -0.22800708 C201.04371909 -0.31920657 219.40760893 1.7913086 237.57716107 7.1430676 C238.65344769 7.45800168 238.65344769 7.45800168 239.75147748 7.77929807 C272.32214335 17.50599659 300.30914179 37.20686332 316.70216107 67.4555676 C334.41263236 101.0991454 336.49889221 142.62980008 325.7822392 178.82812619 C324.0546381 184.09482378 321.95598379 189.13980289 319.57716107 194.1430676 C319.26375775 194.80725705 318.95035443 195.4714465 318.62745404 196.15576291 C314.25402034 205.24058758 309.00108659 213.34181802 302.57716107 221.1430676 C301.81790326 222.06732541 301.05864545 222.99158322 300.27637982 223.94384885 C287.9792532 238.17309356 272.20477797 248.21728048 255.32716107 256.2055676 C254.69495648 256.50495236 254.06275189 256.80433713 253.41138959 257.11279416 C250.60544742 258.39292623 248.70027975 259.1430676 245.57716107 259.1430676 C248.93556886 265.49968429 252.70033208 271.36948978 256.88966107 277.2055676 C262.34064596 284.88809509 267.62859713 292.66266505 272.82716107 300.5180676 C277.71559525 307.8977619 282.69173282 315.16585568 287.88966107 322.3305676 C292.32389334 328.53849277 296.46374129 334.95327821 300.67677045 341.31201291 C304.77005029 347.4752562 308.93937104 353.56083951 313.27906537 359.55249143 C316.40272316 363.87008064 319.3649708 368.27781608 322.29981732 372.72509885 C325.80619549 378.01630626 329.41814042 383.23665247 333.0100224 388.4699719 C334.06127878 390.00241142 335.11045866 391.53627817 336.1572392 393.07177854 C337.04639062 394.36881442 337.94474143 395.65964427 338.85645795 396.94091916 C341.57716107 400.82114866 341.57716107 400.82114866 341.57716107 404.1430676 C244.88244365 411.67411566 244.88244365 411.67411566 228.26412702 397.96089292 C219.83527249 389.09010582 215.18723471 377.79763057 211.3940556 366.31103635 C209.19302671 359.7021602 205.75834987 354.70287305 201.57716107 349.1430676 C200.37322946 347.35630806 199.18105172 345.56158794 197.99903607 343.7602551 C190.4272694 332.40260508 182.76867676 321.10280841 175.12794232 309.7915051 C174.53314069 308.9065939 173.93833905 308.02168271 173.32551312 307.10995603 C172.12956659 305.34685687 170.91819146 303.59412448 169.69160199 301.85220456 C166.75134963 297.63552692 164.25213094 293.62859104 162.27345014 288.87500119 C159.90190712 283.59937467 157.64835887 279.20902357 152.57716107 276.1430676 C141.81547373 273.2548834 130.33772211 274.05958294 119.30384564 274.44354367 C115.16125516 274.56819503 111.01820039 274.58928054 106.87403607 274.6196301 C98.77115701 274.69396838 90.67615652 274.88168282 82.57716107 275.1430676 C82.57808287 275.80182354 82.57900466 276.46057948 82.57995439 277.13929772 C82.60200943 293.14574251 82.61857254 309.15218204 82.62897325 325.15863824 C82.63413624 332.89914041 82.641179 340.63963247 82.65260053 348.38012815 C82.66254726 355.12433911 82.66901448 361.86854275 82.67124957 368.61276084 C82.67255669 372.18593626 82.67564266 375.7590907 82.68289113 379.33225942 C82.69090479 383.3146911 82.69115222 387.29710201 82.69068646 391.27954221 C82.69428174 392.47284146 82.69787702 393.66614072 82.70158124 394.89560056 C82.70020658 395.97398694 82.69883191 397.05237332 82.69741559 398.16343808 C82.69833738 399.1064323 82.69925918 400.04942653 82.7002089 401.02099633 C82.57716107 403.1430676 82.57716107 403.1430676 81.57716107 404.1430676 C78.87415808 404.24353563 76.19667761 404.27923212 73.4931767 404.27246213 C72.64607633 404.27421445 71.79897595 404.27596677 70.92620587 404.27777219 C68.11192041 404.28219169 65.29769723 404.27925237 62.48341107 404.2758801 C60.5366743 404.27655311 58.5899376 404.27752311 56.64320111 404.27877927 C52.55754033 404.28025637 48.47190136 404.27810128 44.3862431 404.27343869 C39.13669592 404.2677414 33.88719985 404.27102034 28.63765454 404.27701116 C24.61607721 404.28061643 20.59451208 404.27947834 16.57293439 404.27688336 C14.63674658 404.276214 12.70055769 404.27704284 10.76437116 404.27936292 C8.06326583 404.28188888 5.36224449 404.27804965 2.66114545 404.27246213 C1.44862355 404.27549848 1.44862355 404.27549848 0.21160626 404.27859616 C-5.30857645 404.25733008 -5.30857645 404.25733008 -6.42283893 403.1430676 C-6.52174367 401.01213668 -6.54839625 398.87785504 -6.54868007 396.7446301 C-6.55013351 396.06504963 -6.55158695 395.38546916 -6.55308443 394.68529534 C-6.5567702 392.37953096 -6.55324618 390.07383163 -6.54982257 387.7680676 C-6.55097337 386.10974714 -6.55256062 384.45142694 -6.55454981 382.79310727 C-6.55874875 378.21385771 -6.55664992 373.63462882 -6.55356359 369.05537915 C-6.55131199 364.12554141 -6.5547879 359.19570736 -6.55754352 354.26587033 C-6.56200279 344.59950795 -6.56102405 334.93315332 -6.55813088 325.26679063 C-6.55587746 317.41451381 -6.55556405 309.56223918 -6.55665469 301.70996213 C-6.55688454 300.03705562 -6.55688454 300.03705562 -6.55711903 298.33035302 C-6.55743874 296.06508628 -6.55776295 293.79981955 -6.55809163 291.53455281 C-6.56094688 270.26604223 -6.55765869 248.99753595 -6.55229126 227.72902608 C-6.54782318 209.4581836 -6.5485991 191.18734747 -6.55321002 172.9165051 C-6.55855498 151.72691358 -6.56067218 130.53732584 -6.55759776 109.34773374 C-6.55727919 107.09054685 -6.55696482 104.83335996 -6.55665469 102.57617307 C-6.55650042 101.46543644 -6.55634614 100.35469981 -6.55618719 99.2103045 C-6.5553218 91.36253321 -6.55678538 83.5147643 -6.55913424 75.66699338 C-6.56193158 66.1102591 -6.56119539 56.55353304 -6.5558535 46.99679971 C-6.55321558 42.11577201 -6.55221294 37.23475805 -6.55550265 32.35373044 C-6.55846378 27.89295557 -6.55687591 23.43220726 -6.5515251 18.97143483 C-6.55040012 17.35032736 -6.55099386 15.72921769 -6.55340089 14.10811162 C-6.55640381 11.91921002 -6.55336153 9.73040167 -6.54868007 7.5415051 C-6.54851771 6.32124631 -6.54835536 5.10098752 -6.54818809 3.84375119 C-6.32679641 -0.92619595 -4.25016658 0.02310366 0 0 Z " fill="#333F48" transform="translate(488.4228389263153,5.8569324016571045)"/>
<path d="M0 0 C0 137.28 0 274.56 0 416 C-182.86307913 416 -182.86307913 416 -207.0625 410.1875 C-208.18132568 409.92670654 -209.30015137 409.66591309 -210.45288086 409.3972168 C-219.86001214 407.1465222 -228.98356668 404.50142333 -238 401 C-238.96196289 400.6277832 -239.92392578 400.25556641 -240.91503906 399.87207031 C-267.21134023 389.5439966 -291.29549149 376.00102422 -312.8984375 357.7421875 C-315.0840743 355.86885211 -315.0840743 355.86885211 -318 354 C-318.5530149 350.38796574 -318.44570043 348.64378952 -316.34765625 345.61328125 C-315.59355469 344.85402344 -314.83945312 344.09476562 -314.0625 343.3125 C-310.78464221 339.88657698 -307.65933154 336.44573922 -304.6875 332.75 C-301.19566961 328.43548705 -297.62414746 324.20298455 -294 320 C-290.40824802 315.83079048 -286.85335121 311.63997481 -283.375 307.375 C-282.66601562 306.51003906 -281.95703125 305.64507812 -281.2265625 304.75390625 C-279.59403261 302.73472454 -277.98981975 300.70334156 -276.3984375 298.65234375 C-275.51577426 297.53894415 -274.6329648 296.42566046 -273.75 295.3125 C-272.96109375 294.29800781 -272.1721875 293.28351563 -271.359375 292.23828125 C-269 290 -269 290 -266.5078125 289.42578125 C-263.20034251 290.18309915 -261.64408415 291.60703951 -259.125 293.875 C-227.88067722 320.56024489 -187.50105342 336.41409217 -146.4375 336.3125 C-145.13103516 336.32861328 -143.82457031 336.34472656 -142.47851562 336.36132812 C-126.87624326 336.36910205 -109.72338413 333.1201675 -98 322 C-90.57289867 314.0145972 -88.41731279 305.93347131 -88.71875 295.14453125 C-89.43034935 287.18845514 -92.33899208 280.68440051 -98 275 C-117.4965091 259.30600154 -145.52638304 253.42141309 -169.24462891 247.67773438 C-176.21343808 245.96362714 -183.11264193 244.01369931 -190 242 C-191.47339844 241.57098389 -191.47339844 241.57098389 -192.9765625 241.13330078 C-232.77708436 229.45823894 -272.24302119 214.28400393 -293.49609375 176.328125 C-307.68809742 147.85569396 -307.52292204 110.97286166 -297.80664062 81.234375 C-295.50247712 74.85189787 -292.3375413 68.89307837 -289 63 C-288.44441406 62.01515625 -287.88882812 61.0303125 -287.31640625 60.015625 C-268.66575133 29.0653775 -237.03144451 12.13864747 -202.90722656 3.46826172 C-137.09480217 -12.17318815 -67.64562188 0 0 0 Z " fill="#333F48" transform="translate(1332,0)"/>
<path d="M0 0 C1.2125219 0.00303635 1.2125219 0.00303635 2.44953918 0.00613403 C3.29663956 0.00438171 4.14373993 0.00262939 5.01651001 0.00082397 C7.83079547 -0.00359553 10.64501865 -0.00065621 13.45930481 0.00271606 C15.40604159 0.00204305 17.35277828 0.00107305 19.29951477 -0.00018311 C23.38517556 -0.00166021 27.47081452 0.00049489 31.55647278 0.00515747 C36.80601996 0.01085476 42.05551603 0.00757583 47.30506134 0.00158501 C51.32663868 -0.00202026 55.3482038 -0.00088218 59.36978149 0.0017128 C61.3059693 0.00238216 63.2421582 0.00155332 65.17834473 -0.00076675 C67.87945005 -0.00329272 70.5804714 0.00054652 73.28157043 0.00613403 C74.08991837 0.0041098 74.8982663 0.00208557 75.73110962 0 C81.25129233 0.02126609 81.25129233 0.02126609 82.36555481 1.13552856 C82.46445955 3.26645948 82.49111213 5.40074113 82.49139595 7.53396606 C82.49284939 8.21354653 82.49430283 8.893127 82.49580032 9.59330082 C82.49948608 11.8990652 82.49596207 14.20476453 82.49253845 16.51052856 C82.49368926 18.16884902 82.4952765 19.82716923 82.4972657 21.48548889 C82.50146463 26.06473845 82.4993658 30.64396735 82.49627948 35.22321701 C82.49402788 40.15305475 82.49750379 45.08288881 82.5002594 50.01272583 C82.50471868 59.67908821 82.50373993 69.34544285 82.50084676 79.01180553 C82.49859334 86.86408235 82.49827993 94.71635699 82.49937057 102.56863403 C82.49952381 103.68390504 82.49967704 104.79917604 82.49983492 105.94824314 C82.50015463 108.21350988 82.50047884 110.47877661 82.50080751 112.74404335 C82.50366276 134.01255393 82.50037457 155.28106021 82.49500714 176.54957008 C82.49053906 194.82041257 82.49131498 213.0912487 82.4959259 231.36209106 C82.50127087 252.55168258 82.50338807 273.74127033 82.50031364 294.93086243 C82.49999507 297.18804932 82.4996807 299.44523621 82.49937057 301.7024231 C82.49913916 303.36852804 82.49913916 303.36852804 82.49890307 305.06829166 C82.49803768 312.91606295 82.49950126 320.76383186 82.50185013 328.61160278 C82.50464747 338.16833706 82.50391128 347.72506312 82.49856938 357.28179646 C82.49593147 362.16282415 82.49492882 367.04383811 82.49821854 371.92486572 C82.50117966 376.38564059 82.49959179 380.8463889 82.49424098 385.30716133 C82.493116 386.9282688 82.49370974 388.54937847 82.49611677 390.17048454 C82.49911969 392.35938615 82.49607741 394.54819449 82.49139595 396.73709106 C82.4912336 397.95734985 82.49107125 399.17760864 82.49090397 400.43484497 C82.36555481 403.13552856 82.36555481 403.13552856 81.36555481 404.13552856 C78.66255182 404.2359966 75.98507135 404.27169309 73.28157043 404.2649231 C72.43447006 404.26667542 71.58736969 404.26842773 70.71459961 404.27023315 C67.90031414 404.27465266 65.08609097 404.27171334 62.27180481 404.26834106 C60.32506803 404.26901408 58.37833134 404.26998408 56.43159485 404.27124023 C52.34593406 404.27271734 48.2602951 404.27056224 44.17463684 404.26589966 C38.92508965 404.26020236 33.67559359 404.2634813 28.42604828 404.26947212 C24.40447094 404.27307739 20.38290582 404.27193931 16.36132812 404.26934433 C14.42514032 404.26867497 12.48895142 404.26950381 10.55276489 404.27182388 C7.85165956 404.27434985 5.15063822 404.27051061 2.44953918 404.2649231 C1.23701729 404.26795944 1.23701729 404.26795944 0 404.27105713 C-5.52018271 404.24979104 -5.52018271 404.24979104 -6.63444519 403.13552856 C-6.73334993 401.00459765 -6.76000251 398.870316 -6.76028633 396.73709106 C-6.76173977 396.0575106 -6.76319321 395.37793013 -6.7646907 394.67775631 C-6.76837646 392.37199193 -6.76485245 390.0662926 -6.76142883 387.76052856 C-6.76257964 386.10220811 -6.76416688 384.4438879 -6.76615608 382.78556824 C-6.77035501 378.20631868 -6.76825618 373.62708978 -6.76516986 369.04784012 C-6.76291826 364.11800237 -6.76639417 359.18816832 -6.76914978 354.2583313 C-6.77360906 344.59196892 -6.77263031 334.92561428 -6.76973714 325.25925159 C-6.76748372 317.40697478 -6.76717032 309.55470014 -6.76826096 301.7024231 C-6.76849081 300.02951659 -6.76849081 300.02951659 -6.7687253 298.32281399 C-6.76904501 296.05754725 -6.76936922 293.79228051 -6.76969789 291.52701378 C-6.77255314 270.2585032 -6.76926495 248.98999692 -6.76389752 227.72148705 C-6.75942944 209.45064456 -6.76020536 191.17980843 -6.76481628 172.90896606 C-6.77016125 151.71937455 -6.77227845 130.5297868 -6.76920402 109.3401947 C-6.76888545 107.08300781 -6.76857108 104.82582092 -6.76826096 102.56863403 C-6.76810668 101.45789741 -6.7679524 100.34716078 -6.76779345 99.20276546 C-6.76692806 91.35499417 -6.76839165 83.50722527 -6.77074051 75.65945435 C-6.77353785 66.10272007 -6.77280166 56.54599401 -6.76745977 46.98926067 C-6.76482185 42.10823298 -6.7638192 37.22721902 -6.76710892 32.34619141 C-6.77007004 27.88541653 -6.76848217 23.42466823 -6.76313137 18.9638958 C-6.76200639 17.34278833 -6.76260012 15.72167866 -6.76500715 14.10057259 C-6.76801007 11.91167098 -6.7649678 9.72286264 -6.76028633 7.53396606 C-6.76012398 6.31370728 -6.75996163 5.09344849 -6.75979435 3.83621216 C-6.53467199 -1.01411368 -4.30060215 0.01656775 0 0 Z " fill="#333F48" transform="translate(885.6344451904297,5.864471435546875)"/>
<path d="M0 0 C1.2125219 0.00303635 1.2125219 0.00303635 2.44953918 0.00613403 C3.29663956 0.00438171 4.14373993 0.00262939 5.01651001 0.00082397 C7.83079547 -0.00359553 10.64501865 -0.00065621 13.45930481 0.00271606 C15.40604159 0.00204305 17.35277828 0.00107305 19.29951477 -0.00018311 C23.38517556 -0.00166021 27.47081452 0.00049489 31.55647278 0.00515747 C36.80601996 0.01085476 42.05551603 0.00757583 47.30506134 0.00158501 C51.32663868 -0.00202026 55.3482038 -0.00088218 59.36978149 0.0017128 C61.3059693 0.00238216 63.2421582 0.00155332 65.17834473 -0.00076675 C67.87945005 -0.00329272 70.5804714 0.00054652 73.28157043 0.00613403 C74.08991837 0.0041098 74.8982663 0.00208557 75.73110962 0 C81.25129233 0.02126609 81.25129233 0.02126609 82.36555481 1.13552856 C82.46445955 3.26645948 82.49111213 5.40074113 82.49139595 7.53396606 C82.49284939 8.21354653 82.49430283 8.893127 82.49580032 9.59330082 C82.49948608 11.8990652 82.49596207 14.20476453 82.49253845 16.51052856 C82.49368926 18.16884902 82.4952765 19.82716923 82.4972657 21.48548889 C82.50146463 26.06473845 82.4993658 30.64396735 82.49627948 35.22321701 C82.49402788 40.15305475 82.49750379 45.08288881 82.5002594 50.01272583 C82.50471868 59.67908821 82.50373993 69.34544285 82.50084676 79.01180553 C82.49859334 86.86408235 82.49827993 94.71635699 82.49937057 102.56863403 C82.49952381 103.68390504 82.49967704 104.79917604 82.49983492 105.94824314 C82.50015463 108.21350988 82.50047884 110.47877661 82.50080751 112.74404335 C82.50366276 134.01255393 82.50037457 155.28106021 82.49500714 176.54957008 C82.49053906 194.82041257 82.49131498 213.0912487 82.4959259 231.36209106 C82.50127087 252.55168258 82.50338807 273.74127033 82.50031364 294.93086243 C82.49999507 297.18804932 82.4996807 299.44523621 82.49937057 301.7024231 C82.49913916 303.36852804 82.49913916 303.36852804 82.49890307 305.06829166 C82.49803768 312.91606295 82.49950126 320.76383186 82.50185013 328.61160278 C82.50464747 338.16833706 82.50391128 347.72506312 82.49856938 357.28179646 C82.49593147 362.16282415 82.49492882 367.04383811 82.49821854 371.92486572 C82.50117966 376.38564059 82.49959179 380.8463889 82.49424098 385.30716133 C82.493116 386.9282688 82.49370974 388.54937847 82.49611677 390.17048454 C82.49911969 392.35938615 82.49607741 394.54819449 82.49139595 396.73709106 C82.4912336 397.95734985 82.49107125 399.17760864 82.49090397 400.43484497 C82.36555481 403.13552856 82.36555481 403.13552856 81.36555481 404.13552856 C78.66255182 404.2359966 75.98507135 404.27169309 73.28157043 404.2649231 C72.43447006 404.26667542 71.58736969 404.26842773 70.71459961 404.27023315 C67.90031414 404.27465266 65.08609097 404.27171334 62.27180481 404.26834106 C60.32506803 404.26901408 58.37833134 404.26998408 56.43159485 404.27124023 C52.34593406 404.27271734 48.2602951 404.27056224 44.17463684 404.26589966 C38.92508965 404.26020236 33.67559359 404.2634813 28.42604828 404.26947212 C24.40447094 404.27307739 20.38290582 404.27193931 16.36132812 404.26934433 C14.42514032 404.26867497 12.48895142 404.26950381 10.55276489 404.27182388 C7.85165956 404.27434985 5.15063822 404.27051061 2.44953918 404.2649231 C1.23701729 404.26795944 1.23701729 404.26795944 0 404.27105713 C-5.52018271 404.24979104 -5.52018271 404.24979104 -6.63444519 403.13552856 C-6.73334993 401.00459765 -6.76000251 398.870316 -6.76028633 396.73709106 C-6.76173977 396.0575106 -6.76319321 395.37793013 -6.7646907 394.67775631 C-6.76837646 392.37199193 -6.76485245 390.0662926 -6.76142883 387.76052856 C-6.76257964 386.10220811 -6.76416688 384.4438879 -6.76615608 382.78556824 C-6.77035501 378.20631868 -6.76825618 373.62708978 -6.76516986 369.04784012 C-6.76291826 364.11800237 -6.76639417 359.18816832 -6.76914978 354.2583313 C-6.77360906 344.59196892 -6.77263031 334.92561428 -6.76973714 325.25925159 C-6.76748372 317.40697478 -6.76717032 309.55470014 -6.76826096 301.7024231 C-6.76849081 300.02951659 -6.76849081 300.02951659 -6.7687253 298.32281399 C-6.76904501 296.05754725 -6.76936922 293.79228051 -6.76969789 291.52701378 C-6.77255314 270.2585032 -6.76926495 248.98999692 -6.76389752 227.72148705 C-6.75942944 209.45064456 -6.76020536 191.17980843 -6.76481628 172.90896606 C-6.77016125 151.71937455 -6.77227845 130.5297868 -6.76920402 109.3401947 C-6.76888545 107.08300781 -6.76857108 104.82582092 -6.76826096 102.56863403 C-6.76810668 101.45789741 -6.7679524 100.34716078 -6.76779345 99.20276546 C-6.76692806 91.35499417 -6.76839165 83.50722527 -6.77074051 75.65945435 C-6.77353785 66.10272007 -6.77280166 56.54599401 -6.76745977 46.98926067 C-6.76482185 42.10823298 -6.7638192 37.22721902 -6.76710892 32.34619141 C-6.77007004 27.88541653 -6.76848217 23.42466823 -6.76313137 18.9638958 C-6.76200639 17.34278833 -6.76260012 15.72167866 -6.76500715 14.10057259 C-6.76801007 11.91167098 -6.7649678 9.72286264 -6.76028633 7.53396606 C-6.76012398 6.31370728 -6.75996163 5.09344849 -6.75979435 3.83621216 C-6.53467199 -1.01411368 -4.30060215 0.01656775 0 0 Z " fill="#333F48" transform="translate(326.6344451904297,5.864471435546875)"/>
<path d="M0 0 C11.17844833 -0.04626954 22.35687402 -0.08184175 33.53539848 -0.10362434 C38.72561899 -0.11407705 43.91577414 -0.12826329 49.10595703 -0.15087891 C54.11150889 -0.17255438 59.11699777 -0.18455741 64.12259293 -0.18975449 C66.03563555 -0.19345979 67.9486746 -0.20069496 69.86169052 -0.21146011 C72.53400976 -0.22590473 75.2060662 -0.22798091 77.87841797 -0.22705078 C78.67539093 -0.23424133 79.47236389 -0.24143188 80.29348755 -0.24884033 C85.77189568 -0.22810432 85.77189568 -0.22810432 88 2 C88.24954766 3.90681124 88.24954766 3.90681124 88.24888897 6.28540802 C88.25348777 7.19035617 88.25808656 8.09530433 88.26282471 9.02767515 C88.25768115 10.02824084 88.25253759 11.02880652 88.24723816 12.05969238 C88.24965257 13.11763016 88.25206699 14.17556794 88.25455457 15.26556444 C88.26022007 18.83400554 88.25150694 22.40226988 88.24291992 25.97070312 C88.2439921 28.51944528 88.24592981 31.0681872 88.24867249 33.6169281 C88.25302867 39.83508236 88.24806379 46.05317029 88.23882218 52.27131736 C88.22845389 59.50680999 88.22850796 66.74229104 88.22899476 73.9777897 C88.22949575 86.88445566 88.22032402 99.79109688 88.20581055 112.69775391 C88.1917224 125.23258922 88.18463975 137.76740275 88.18530273 150.30224609 C88.18536267 151.4602095 88.18536267 151.4602095 88.18542381 152.6415661 C88.18546417 153.41218368 88.18550452 154.18280125 88.1855461 154.97677088 C88.18623539 169.23110133 88.18034903 183.48542249 88.17139288 197.73974994 C88.1683723 202.78780906 88.16731282 207.83586647 88.16686058 212.88392639 C88.16610848 219.67342769 88.15977841 226.46290276 88.14969444 233.25239754 C88.14676325 235.75102154 88.14554532 238.24964819 88.14612198 240.74827385 C88.14660952 244.1456433 88.14098816 247.54294726 88.13371277 250.94030762 C88.13526137 251.9408733 88.13680997 252.94143899 88.1384055 253.97232485 C88.13356883 255.32974708 88.13356883 255.32974708 88.12863445 256.71459198 C88.12793003 257.49952892 88.1272256 258.28446586 88.12649983 259.09318876 C88 261 88 261 87 263 C75.6738837 263.02312255 64.34777297 263.04091464 53.02163792 263.05181217 C47.76303336 263.05704119 42.5044449 263.06413918 37.24584961 263.07543945 C32.17546873 263.08626766 27.10510338 263.09227669 22.03471184 263.09487724 C20.09573052 263.09673161 18.15675009 263.10035245 16.21777534 263.10573006 C13.5117824 263.1129396 10.80585444 263.11399098 8.09985352 263.11352539 C7.28993454 263.11712067 6.48001556 263.12071594 5.64555359 263.12442017 C0.11405216 263.11405216 0.11405216 263.11405216 -1 262 C-1.09738306 260.61011666 -1.12555421 259.21531318 -1.12584114 257.82202244 C-1.12844889 256.91558194 -1.13105664 256.00914144 -1.13374341 255.07523304 C-1.13151268 254.06786357 -1.12928196 253.06049409 -1.12698364 252.02259827 C-1.12854363 250.96143136 -1.13010362 249.90026445 -1.13171089 248.80694097 C-1.13572592 245.221622 -1.13252929 241.63634475 -1.12939453 238.05102539 C-1.13074836 235.49257889 -1.13252818 232.93413258 -1.13470459 230.37568665 C-1.13880521 224.13000906 -1.13818545 217.88434713 -1.13529195 211.63866932 C-1.133038 206.56433788 -1.13272536 201.49000982 -1.13381577 196.41567802 C-1.133969 195.69479704 -1.13412223 194.97391605 -1.13428011 194.23119019 C-1.13459982 192.76694318 -1.13492403 191.30269618 -1.1352527 189.83844917 C-1.13810776 176.09146384 -1.13482017 162.34448516 -1.12945233 148.59750091 C-1.12498522 136.79164115 -1.12575941 124.98579122 -1.13037109 113.17993164 C-1.13571803 99.48531111 -1.13783206 85.79069643 -1.13475883 72.096075 C-1.13444027 70.63676258 -1.1341259 69.17745016 -1.13381577 67.71813774 C-1.13366149 67.00004548 -1.13350721 66.28195323 -1.13334826 65.5421006 C-1.1324834 60.47201057 -1.13394535 55.40192424 -1.13629532 50.33183479 C-1.13938666 43.5119815 -1.13719761 36.69214971 -1.13140106 29.87229729 C-1.13007362 27.36238511 -1.13046731 24.85247138 -1.13266373 22.34255981 C-1.13537587 18.92981348 -1.13199325 15.51712779 -1.12698364 12.10438538 C-1.12921436 11.09924662 -1.13144509 10.09410787 -1.13374341 9.05851036 C-1.13113566 8.14946212 -1.12852791 7.24041387 -1.12584114 6.3038187 C-1.12567879 5.51530193 -1.12551644 4.72678516 -1.12534916 3.91437393 C-1 2 -1 2 0 0 Z " fill="#62B5E5" transform="translate(159,147)"/>
<path d="M0 0 C46.53 0 93.06 0 141 0 C141 89.43 141 178.86 141 271 C140.67 271 140.34 271 140 271 C139.85304688 270.1028125 139.70609375 269.205625 139.5546875 268.28125 C134.8190228 241.93571304 121.77913614 219.83898899 99.81494141 204.25244141 C94.38239268 200.50358817 88.80817375 197.13476324 83 194 C82.28118652 193.60989746 81.56237305 193.21979492 80.82177734 192.81787109 C55.15425757 179.16189261 26.04130421 171.5729841 -1.99780273 164.45385742 C-60.08480919 149.66991454 -60.08480919 149.66991454 -71.25 130.8984375 C-75.30557085 122.47749525 -75.65879625 112.47089782 -72.96484375 103.5859375 C-68.42987953 93.60648978 -61.12371484 87.13477966 -51.03125 83.03125 C-32.79653982 76.8276888 -11.50101613 76.85324736 7 82 C8.10142334 82.29003906 8.10142334 82.29003906 9.22509766 82.5859375 C33.55247673 89.03212096 57.37697374 99.61193323 77.58984375 114.734375 C79.90623553 116.21509353 79.90623553 116.21509353 82.42993164 115.85791016 C85.7473865 114.75051618 86.5967296 113.42474061 88.53125 110.5390625 C89.17022217 109.60223633 89.80919434 108.66541016 90.4675293 107.70019531 C91.47360229 106.17797363 91.47360229 106.17797363 92.5 104.625 C93.20487549 103.5844043 93.90975098 102.54380859 94.63598633 101.47167969 C96.08045089 99.33764497 97.5190094 97.19960081 98.95166016 95.05761719 C101.31029979 91.53680637 103.70439537 88.04171041 106.10693359 84.55078125 C107.68002868 82.26087576 109.24068748 79.96283889 110.80078125 77.6640625 C113.06791642 74.33533791 115.38563374 71.04786018 117.73046875 67.7734375 C118.33995361 66.91202148 118.94943848 66.05060547 119.57739258 65.16308594 C120.74871797 63.50926294 121.93164504 61.8635772 123.12768555 60.22753906 C123.65015869 59.4847168 124.17263184 58.74189453 124.7109375 57.9765625 C125.17806152 57.32768066 125.64518555 56.67879883 126.12646484 56.01025391 C127.32027932 53.2629458 126.97251227 51.79967361 126 49 C124.64529673 47.4165262 124.64529673 47.4165262 122.81640625 46.23828125 C122.14577148 45.76438965 121.47513672 45.29049805 120.78417969 44.80224609 C119.68444824 44.06482178 119.68444824 44.06482178 118.5625 43.3125 C117.79969727 42.78994629 117.03689453 42.26739258 116.25097656 41.72900391 C108.12915668 36.25964749 99.69628814 31.48656312 91 27 C89.7941626 26.36964844 89.7941626 26.36964844 88.56396484 25.7265625 C74.53158304 18.46131677 60.17059626 13.35524311 45 9 C44.1248877 8.74347656 43.24977539 8.48695312 42.34814453 8.22265625 C28.429384 4.2000502 14.39480969 2.42704101 0 1 C0 0.67 0 0.34 0 0 Z " fill="#FEFEFE" transform="translate(1191,0)"/>
<path d="M0 0 C16.12875 -0.0825 32.2575 -0.165 48.875 -0.25 C53.93183105 -0.28641602 58.98866211 -0.32283203 64.19873047 -0.36035156 C70.46508789 -0.37841797 70.46508789 -0.37841797 73.41629028 -0.3817749 C75.43886862 -0.38784086 77.46143426 -0.4017465 79.48391724 -0.42230225 C100.03664307 -0.62040177 121.04444178 1.20274408 138 14 C138.61617187 14.43957031 139.23234375 14.87914063 139.8671875 15.33203125 C149.65283687 22.87785421 154.99230815 35.08476081 157 47 C158.45641472 62.98072083 157.57838816 78.62956218 147.7109375 91.953125 C135.72605048 106.29120901 120.67496149 113.73419559 102.15280533 115.82134247 C93.75750792 116.51805345 85.27119879 116.23754311 76.85546875 116.1953125 C74.8830171 116.19236574 72.91056388 116.1903292 70.93811035 116.18920898 C63.68788279 116.17879502 56.43768888 116.15087268 49.1875 116.125 C24.8396875 116.063125 24.8396875 116.063125 0 116 C0 77.72 0 39.44 0 0 Z " fill="#FEFEFE" transform="translate(572,86)"/>
<path d="M0 0 C1.2125219 0.00303635 1.2125219 0.00303635 2.44953918 0.00613403 C3.29663956 0.00438171 4.14373993 0.00262939 5.01651001 0.00082397 C7.83079547 -0.00359553 10.64501865 -0.00065621 13.45930481 0.00271606 C15.40604159 0.00204305 17.35277828 0.00107305 19.29951477 -0.00018311 C23.38517556 -0.00166021 27.47081452 0.00049489 31.55647278 0.00515747 C36.80601996 0.01085476 42.05551603 0.00757583 47.30506134 0.00158501 C51.32663868 -0.00202026 55.3482038 -0.00088218 59.36978149 0.0017128 C61.3059693 0.00238216 63.2421582 0.00155332 65.17834473 -0.00076675 C67.87945005 -0.00329272 70.5804714 0.00054652 73.28157043 0.00613403 C74.08991837 0.0041098 74.8982663 0.00208557 75.73110962 0 C81.25129233 0.02126609 81.25129233 0.02126609 82.36555481 1.13552856 C82.46387069 2.8034578 82.4918747 4.47556862 82.49253845 6.14639282 C82.49676819 7.77442589 82.49676819 7.77442589 82.50108337 9.43534851 C82.49804703 11.23696693 82.49804703 11.23696693 82.49494934 13.07498169 C82.49757782 14.96010719 82.49757782 14.96010719 82.5002594 16.88331604 C82.50483321 20.33983504 82.50304439 23.79632431 82.49988031 27.25284386 C82.49735644 30.86254331 82.49969433 34.47224015 82.50126648 38.0819397 C82.5030881 44.14489196 82.50068207 50.20783205 82.4959259 56.27078247 C82.4904833 63.29002943 82.49224596 70.30924734 82.49775231 77.3284936 C82.50228366 83.344618 82.50293388 89.36073363 82.50031364 95.37685919 C82.49875099 98.97460754 82.49855677 102.57234223 82.50185013 106.17008972 C82.50526303 110.17876926 82.50053874 114.18739836 82.49494934 118.19607544 C82.49697357 119.39715439 82.4989978 120.59823334 82.50108337 121.83570862 C82.49826355 122.921064 82.49544373 124.00641937 82.49253845 125.12466431 C82.49197291 126.54826893 82.49197291 126.54826893 82.49139595 128.00063324 C82.36555481 130.13552856 82.36555481 130.13552856 81.36555481 131.13552856 C78.66255182 131.2359966 75.98507135 131.27169309 73.28157043 131.2649231 C72.43447006 131.26667542 71.58736969 131.26842773 70.71459961 131.27023315 C67.90031414 131.27465266 65.08609097 131.27171334 62.27180481 131.26834106 C60.32506803 131.26901408 58.37833134 131.26998408 56.43159485 131.27124023 C52.34593406 131.27271734 48.2602951 131.27056224 44.17463684 131.26589966 C38.92508965 131.26020236 33.67559359 131.2634813 28.42604828 131.26947212 C24.40447094 131.27307739 20.38290582 131.27193931 16.36132812 131.26934433 C14.42514032 131.26867497 12.48895142 131.26950381 10.55276489 131.27182388 C7.85165956 131.27434985 5.15063822 131.27051061 2.44953918 131.2649231 C1.23701729 131.26795944 1.23701729 131.26795944 0 131.27105713 C-5.52018271 131.24979104 -5.52018271 131.24979104 -6.63444519 130.13552856 C-6.73276107 128.46759933 -6.76076508 126.7954885 -6.76142883 125.12466431 C-6.76424866 124.03930893 -6.76706848 122.95395355 -6.76997375 121.83570862 C-6.76794952 120.63462967 -6.76592529 119.43355072 -6.76383972 118.19607544 C-6.76559204 116.9393251 -6.76734436 115.68257477 -6.76914978 114.38774109 C-6.77372359 110.93122209 -6.77193477 107.47473281 -6.76877069 104.01821327 C-6.76624682 100.40851382 -6.76858471 96.79881698 -6.77015686 93.18911743 C-6.77197848 87.12616517 -6.76957245 81.06322507 -6.76481628 75.00027466 C-6.75937368 67.9810277 -6.76113634 60.96180979 -6.76664269 53.94256353 C-6.77117405 47.92643913 -6.77182426 41.9103235 -6.76920402 35.89419794 C-6.76764137 32.29644958 -6.76744715 28.6987149 -6.77074051 25.10096741 C-6.77415341 21.09228787 -6.76942912 17.08365877 -6.76383972 13.07498169 C-6.76586395 11.87390274 -6.76788818 10.67282379 -6.76997375 9.43534851 C-6.76715393 8.34999313 -6.76433411 7.26463776 -6.76142883 6.14639282 C-6.76105181 5.19732307 -6.76067478 4.24825333 -6.76028633 3.27042389 C-6.50424496 -1.07331879 -3.69414033 0.0142314 0 0 Z " fill="#C8102E" transform="translate(6.6344451904296875,278.8644714355469)"/>
<path d="M0 0 C0.33 0 0.66 0 1 0 C1 35.97 1 71.94 1 109 C-41.24 109 -83.48 109 -127 109 C-127 108.67 -127 108.34 -127 108 C-126.45287354 107.93006836 -125.90574707 107.86013672 -125.34204102 107.78808594 C-91.24060583 103.35849573 -60.41220589 94.00685859 -34 71 C-33.38640625 70.47148437 -32.7728125 69.94296875 -32.140625 69.3984375 C-13.1660199 51.77916134 -2.65046353 25.31786063 0 0 Z " fill="#FDFDFD" transform="translate(1331,307)"/>
</svg>
